<svg width="217" height="214" xmlns="http://www.w3.org/2000/svg">
 <!-- Created with Method Draw - http://github.com/duopixel/Method-Draw/ -->

 <g>
  <title>background</title>
  <rect fill="#fff" id="canvas_background" height="216" width="219" y="-1" x="-1"/>
  <g display="none" overflow="visible" y="0" x="0" height="100%" width="100%" id="canvasGrid">
   <rect fill="url(#gridpattern)" stroke-width="0" y="0" x="0" height="100%" width="100%"/>
  </g>
 </g>
 <g>
  <title>Layer 1</title>
  <ellipse stroke="#000" ry="94.500002" rx="94.500002" id="svg_7" cy="107.500002" cx="108.000002" stroke-width="0" fill="#8383d1"/>
  <g stroke="null" id="svg_6">
   <path stroke="null" id="svg_5" d="m110.99688,139.254589c0,-0.972079 0,-1.620132 -0.332986,-2.592211c-0.332986,-0.648053 -0.332986,-1.620132 -0.665972,-2.268185c-0.332986,-0.648053 -0.665972,-1.296106 -0.998958,-2.268185c-0.665972,-0.648053 -0.998958,-1.296106 -1.331944,-1.944159c-0.332986,-0.648053 -0.998958,-0.972079 -1.66493,-1.944159c-0.665972,-0.648053 -1.331944,-1.296106 -1.66493,-1.620132c-0.332986,-0.324026 -0.998958,-0.972079 -1.997916,-1.620132c-0.998958,-0.648053 -1.66493,-1.296106 -1.997916,-1.296106s-0.998958,-0.648053 -1.997916,-1.296106c-0.998958,-0.648053 -1.66493,-1.296106 -1.997916,-1.296106c-0.665972,0 -1.66493,0 -3.32986,0c-2.330902,0 -4.661803,0 -6.659719,0.324026c-2.330902,0.324026 -4.661803,0.648053 -6.992705,1.620132c-2.330902,0.648053 -4.328818,1.620132 -6.326733,2.916238s-3.32986,2.592211 -4.328818,4.53637c-0.998958,1.944159 -1.66493,4.212344 -1.66493,6.804555c0,2.916238 0.665972,5.508449 2.330902,7.452608c1.66493,2.268185 3.662846,3.888317 5.993747,5.184423s4.994789,2.268185 7.658677,2.916238s5.327775,0.972079 7.991663,0.972079c2.663888,0 4.994789,-0.324026 7.325691,-0.648053c2.330902,-0.648053 4.328818,-1.296106 6.326733,-2.592211c1.997916,-0.972079 3.662846,-2.592211 4.661803,-4.53637c0.998958,-1.944159 1.66493,-4.212344 1.66493,-6.804555zm-7.658677,-53.788387c0,-2.592211 -0.332986,-5.184423 -0.998958,-8.100661c-0.665972,-2.916238 -1.66493,-5.508449 -2.996874,-8.100661c-1.331944,-2.592211 -2.996874,-4.860396 -5.327775,-6.480529c-2.330902,-1.620132 -4.994789,-2.592211 -7.658677,-2.592211c-3.995832,0 -6.992705,1.296106 -9.323607,4.212344c-2.330902,2.916238 -3.32986,6.156502 -3.32986,10.368846c0,1.944159 0.332986,3.888317 0.665972,6.156502c0.332986,2.268185 1.331944,4.212344 2.330902,6.480529c0.998958,2.268185 2.330902,4.212344 3.662846,5.832476c1.331944,1.620132 2.996874,3.240264 4.994789,4.212344c1.997916,0.972079 3.995832,1.620132 6.326733,1.620132c3.995832,0 6.992705,-1.296106 8.990621,-3.888317c1.66493,-2.268185 2.663888,-5.508449 2.663888,-9.720793zm-8.324649,-29.486405l27.970821,0l-8.657635,4.860396l-8.657635,0c2.996874,1.944159 5.327775,4.53637 6.992705,7.776634s2.663888,6.804555 2.663888,10.368846c0,2.916238 -0.332986,5.832476 -1.331944,8.100661c-0.998958,2.268185 -2.330902,4.212344 -3.662846,5.832476c-1.331944,1.296106 -2.663888,2.916238 -4.328818,3.888317c-1.331944,1.296106 -2.663888,2.592211 -3.662846,3.888317c-0.998958,1.296106 -1.331944,2.592211 -1.331944,4.212344c0,0.972079 0.332986,2.268185 0.998958,3.240264c0.665972,0.972079 1.66493,1.944159 2.663888,2.916238c0.998958,0.972079 2.330902,1.944159 3.662846,2.916238c1.331944,0.972079 2.663888,2.268185 3.995832,3.564291c1.331944,1.296106 2.663888,2.592211 3.662846,4.212344c0.998958,1.620132 1.997916,3.240264 2.663888,5.184423c0.665972,1.944159 0.998958,4.212344 0.998958,6.480529c0,6.804555 -2.996874,12.637031 -8.990621,17.497427c-6.326733,5.508449 -15.317354,8.100661 -26.971863,8.100661c-2.663888,0 -4.994789,-0.324026 -7.658677,-0.648053c-2.663888,-0.324026 -5.327775,-0.972079 -7.658677,-1.944159c-2.663888,-0.972079 -4.994789,-2.268185 -6.992705,-3.564291c-1.997916,-1.296106 -3.662846,-3.240264 -4.994789,-5.508449c-0.998958,-1.944159 -1.66493,-4.212344 -1.66493,-7.128581c0,-2.592211 0.665972,-5.184423 2.330902,-8.424687c1.331944,-2.592211 3.32986,-4.860396 5.993747,-6.804555c2.663888,-1.944159 5.993747,-3.564291 9.323607,-4.53637c3.32986,-0.972079 6.659719,-1.620132 9.989579,-2.268185c2.996874,-0.324026 6.326733,-0.648053 9.656593,-0.972079c-2.663888,-3.564291 -3.995832,-6.480529 -3.995832,-9.396766c0,-0.648053 0,-0.972079 0,-1.620132c0,-0.324026 0.332986,-0.972079 0.332986,-1.296106c0,-0.324026 0.332986,-0.648053 0.665972,-1.296106c0.332986,-0.648053 0.332986,-0.972079 0.332986,-1.296106c-1.66493,0.324026 -3.32986,0.324026 -4.328818,0.324026c-6.326733,0 -11.654509,-1.944159 -16.316312,-6.156502c-4.661803,-4.212344 -6.659719,-9.07274 -6.659719,-15.229242c0,-5.832476 1.997916,-11.016899 5.993747,-15.553269c3.995832,-4.212344 8.990621,-7.128581 14.984368,-8.424687c3.995832,-0.972079 7.991663,-1.296106 11.987495,-1.296106zm66.264207,15.877295l0,8.100661l-16.316312,0l0,15.877295l-8.324649,0l0,-15.877295l-16.316312,0l0,-8.100661l16.316312,0l0,-15.877295l8.324649,0l0,15.877295l16.316312,0z" fill="#ffffff"/>
  </g>
 </g>
</svg>