<svg width="217" height="214" xmlns="http://www.w3.org/2000/svg">
 <!-- Created with Method Draw - http://github.com/duopixel/Method-Draw/ -->

 <g>
  <title>background</title>
  <rect fill="#fff" id="canvas_background" height="216" width="219" y="-1" x="-1"/>
  <g display="none" overflow="visible" y="0" x="0" height="100%" width="100%" id="canvasGrid">
   <rect fill="url(#gridpattern)" stroke-width="0" y="0" x="0" height="100%" width="100%"/>
  </g>
 </g>
 <g>
  <title>Layer 1</title>
  <ellipse stroke="#000" ry="94.500002" rx="94.500002" id="svg_7" cy="107.500002" cx="108.000002" stroke-width="0" fill="#8383d1"/>
  <g stroke="null" id="svg_13">
   <path stroke="null" id="svg_12" d="m175.25541,65.805837c-5.028442,2.095184 -10.056883,3.771331 -15.923398,4.190368c5.866515,-3.352294 10.056883,-8.799773 12.152067,-15.085325c-5.447478,3.352294 -11.313994,5.447478 -17.599546,6.704589c-4.609405,-5.447478 -12.152067,-8.799773 -19.69473,-8.799773c-15.085325,0 -27.656429,12.152067 -27.656429,27.656429c0,2.095184 0.419037,4.190368 0.838074,6.285552c-23.047024,-1.25711 -43.16079,-12.152067 -56.989005,-28.913539c-2.514221,4.190368 -3.771331,8.799773 -3.771331,13.828214c0,9.637846 5.028442,18.018582 12.152067,23.047024c-4.609405,0 -8.799773,-1.25711 -12.571104,-3.352294c0,0 0,0.419037 0,0.419037c0,13.409178 9.637846,24.304134 22.20895,26.818355c-2.514221,0.419037 -4.609405,0.838074 -7.123626,0.838074c-1.676147,0 -3.352294,0 -5.028442,-0.419037c3.352294,10.894957 13.828214,18.856656 25.561245,19.275693c-9.21881,7.542662 -21.370877,11.73303 -34.361017,11.73303c-2.095184,0 -4.609405,0 -6.704589,-0.419037c12.152067,7.961699 26.818355,12.571104 42.322717,12.571104c50.703453,0 78.359881,-41.90368 78.359881,-78.359881c0,-1.25711 0,-2.514221 0,-3.352294c5.447478,-4.190368 10.056883,-9.21881 13.828214,-14.666288z" fill="#ffffff"/>
  </g>
 </g>
</svg>